<?xml version="1.0" encoding="UTF-8"?><svg id="Layer_2" xmlns="http://www.w3.org/2000/svg" width="1728" height="1296" viewBox="0 0 1728 1296"><defs><style>.cls-1{fill:#697782;}.cls-2{fill:#a97c6d;}.cls-3{fill:#d6b590;}.cls-4{fill:#445e72;}</style></defs><rect class="cls-2" y="-42.67" width="1790.77" height="1404.44"/><path class="cls-4" d="M61.43,1315.65l1425.77-8.89s-12.44-46.22-26.67-87.11-78.22-179.56-92.44-220.44c0-56.89-28.44-177.78-35.56-192,12.44-30.22,67.56-64.61-67.56-188.44-112-32-157.12-37.45-157.12-37.45l-744.21-12.33S93.43,771.65,61.43,1315.65Z"/><path id="_Path_" class="cls-1" d="M903.75,1097.05s27.78,131.51,57.14,188.04-6.23,49.87-6.23,49.87c0,0-51.74-79.8-105.97-108.05s-109.6-35.03-141.29-141.29-34.27-116.15-47.79-142.33-30.75-45.43-37.4-67.53-92-163.14-92-163.14c0,0,7.69,2.02-27.48-25.95s-47.82-55.83-71.69-74.8-64.61-21.13-58.18-44.67,23.75-47.57,34.28-54.02,30.63-77.69,87.11-134.17c25.92-59.22,154.62-365.27,361.7-336.46,26.86,0,226.14-43.71,274.27,115.32s60.57,103.15-48.83,525.69c-38.38,71.08-85.25,111.88-129.86,151.68s-94.54,66.26-90.39,135.06,42.6,126.75,42.6,126.75Z"/><path class="cls-3" d="M672.88,468.82s-28.75,47.41-31.39,104.41,4.75,186.59,41,233.8c51.71,19.17,88.4,39.71,88.4,39.71,0,0,109.17,41.43,188.96-55.09s97.45-114.34,110.17-182.56,133.28-454.12-35.23-515.64-214.35,67.9-224.83,67.9-132.6,210.71-137.08,307.46Z"/></svg>